<mxfile host="app.diagrams.net" modified="2023-06-16T11:14:03.620Z" agent="Mozilla/5.0 (Windows NT 10.0; Win64; x64; rv:109.0) Gecko/20100101 Firefox/114.0" etag="N_FAEj2mR4p6H8uxfBh6" version="21.3.8" type="device">
  <diagram id="QJjx0-fPxzvcmYibJWj1" name="Page-1">
    <mxGraphModel dx="3297" dy="2634" grid="1" gridSize="10" guides="1" tooltips="1" connect="1" arrows="1" fold="1" page="0" pageScale="1" pageWidth="827" pageHeight="583" math="0" shadow="0">
      <root>
        <mxCell id="0" />
        <mxCell id="1" parent="0" />
        <mxCell id="1CuzqH8pf1TleUMOYyzA-1" value="" style="shape=cube;whiteSpace=wrap;html=1;boundedLbl=1;backgroundOutline=1;darkOpacity=0.05;darkOpacity2=0.1;size=110;direction=east;flipH=1;fillColor=#ffe6cc;strokeColor=#d79b00;aspect=fixed;" parent="1" vertex="1">
          <mxGeometry x="900" y="-70" width="520" height="415" as="geometry" />
        </mxCell>
        <mxCell id="1CuzqH8pf1TleUMOYyzA-2" value="" style="shape=cube;whiteSpace=wrap;html=1;boundedLbl=1;backgroundOutline=1;darkOpacity=0.05;darkOpacity2=0.1;flipV=0;flipH=1;fillColor=#d5e8d4;strokeColor=#82b366;size=120;" parent="1" vertex="1">
          <mxGeometry x="1400" y="-70" width="220" height="420" as="geometry" />
        </mxCell>
        <mxCell id="1CuzqH8pf1TleUMOYyzA-3" value="H x W x C" style="text;html=1;strokeColor=none;fillColor=none;align=center;verticalAlign=middle;whiteSpace=wrap;rounded=0;fontSize=46;aspect=fixed;" parent="1" vertex="1">
          <mxGeometry x="970" y="361.38999999999993" width="309.5" height="100" as="geometry" />
        </mxCell>
        <mxCell id="1CuzqH8pf1TleUMOYyzA-4" value="" style="shape=cube;whiteSpace=wrap;html=1;boundedLbl=1;backgroundOutline=1;darkOpacity=0.05;darkOpacity2=0.1;size=80;direction=east;flipH=1;fillColor=#ffe6cc;strokeColor=#d79b00;" parent="1" vertex="1">
          <mxGeometry x="1630" y="4.329999999999998" width="650" height="271.34" as="geometry" />
        </mxCell>
        <mxCell id="1CuzqH8pf1TleUMOYyzA-5" value="H/16 x W/16 x M" style="text;html=1;strokeColor=none;fillColor=none;align=center;verticalAlign=middle;whiteSpace=wrap;rounded=0;fontSize=46;aspect=fixed;" parent="1" vertex="1">
          <mxGeometry x="1780" y="350" width="380" height="122.78" as="geometry" />
        </mxCell>
        <mxCell id="1CuzqH8pf1TleUMOYyzA-6" value="" style="endArrow=classic;html=1;rounded=0;strokeWidth=4;" parent="1" edge="1">
          <mxGeometry width="50" height="50" relative="1" as="geometry">
            <mxPoint x="2320" y="130" as="sourcePoint" />
            <mxPoint x="2480" y="320" as="targetPoint" />
            <Array as="points">
              <mxPoint x="2480" y="130" />
            </Array>
          </mxGeometry>
        </mxCell>
        <mxCell id="1CuzqH8pf1TleUMOYyzA-7" value="" style="endArrow=classic;html=1;rounded=0;strokeWidth=4;" parent="1" edge="1">
          <mxGeometry width="50" height="50" relative="1" as="geometry">
            <mxPoint x="2480" y="130" as="sourcePoint" />
            <mxPoint x="2650" y="130" as="targetPoint" />
          </mxGeometry>
        </mxCell>
        <mxCell id="1CuzqH8pf1TleUMOYyzA-9" value="" style="shape=cube;whiteSpace=wrap;html=1;boundedLbl=1;backgroundOutline=1;darkOpacity=0.05;darkOpacity2=0.1;flipV=0;flipH=1;fillColor=#dae8fc;strokeColor=#6c8ebf;size=120;" parent="1" vertex="1">
          <mxGeometry x="2990" y="-70" width="220" height="420" as="geometry" />
        </mxCell>
        <mxCell id="1CuzqH8pf1TleUMOYyzA-10" value="" style="shape=cube;whiteSpace=wrap;html=1;boundedLbl=1;backgroundOutline=1;darkOpacity=0.05;darkOpacity2=0.1;size=50;direction=east;flipH=1;fillColor=#ffe6cc;strokeColor=#d79b00;" parent="1" vertex="1">
          <mxGeometry x="3280" y="70.91" width="430" height="143.17" as="geometry" />
        </mxCell>
        <mxCell id="1CuzqH8pf1TleUMOYyzA-11" value="H/64 x W/64 x N" style="text;html=1;strokeColor=none;fillColor=none;align=center;verticalAlign=middle;whiteSpace=wrap;rounded=0;fontSize=46;aspect=fixed;" parent="1" vertex="1">
          <mxGeometry x="3305" y="347.5" width="380" height="122.78" as="geometry" />
        </mxCell>
        <mxCell id="1CuzqH8pf1TleUMOYyzA-12" value="" style="endArrow=classic;html=1;rounded=0;strokeWidth=4;" parent="1" edge="1">
          <mxGeometry width="50" height="50" relative="1" as="geometry">
            <mxPoint x="3730" y="132.5" as="sourcePoint" />
            <mxPoint x="3890" y="322.5" as="targetPoint" />
            <Array as="points">
              <mxPoint x="3890" y="132.5" />
            </Array>
          </mxGeometry>
        </mxCell>
        <mxCell id="1CuzqH8pf1TleUMOYyzA-13" value="&lt;font style=&quot;font-size: 46px;&quot;&gt;Q&lt;/font&gt;" style="whiteSpace=wrap;html=1;aspect=fixed;strokeWidth=5;fillColor=#f5f5f5;fontColor=#333333;strokeColor=#666666;" parent="1" vertex="1">
          <mxGeometry x="2440" y="350" width="80" height="80" as="geometry" />
        </mxCell>
        <mxCell id="1CuzqH8pf1TleUMOYyzA-15" value="&lt;font style=&quot;font-size: 46px;&quot;&gt;AE&lt;/font&gt;" style="whiteSpace=wrap;html=1;aspect=fixed;strokeWidth=5;fillColor=#f5f5f5;fontColor=#333333;strokeColor=#666666;" parent="1" vertex="1">
          <mxGeometry x="2440" y="450" width="80" height="80" as="geometry" />
        </mxCell>
        <mxCell id="1CuzqH8pf1TleUMOYyzA-20" value="" style="group;rotation=-180;" parent="1" vertex="1" connectable="0">
          <mxGeometry x="1940" y="420.0000000000001" width="470.6199999999999" height="269.9899999999998" as="geometry" />
        </mxCell>
        <mxCell id="1CuzqH8pf1TleUMOYyzA-17" value="" style="group;rotation=-90;" parent="1CuzqH8pf1TleUMOYyzA-20" vertex="1" connectable="0">
          <mxGeometry x="200" y="-1" width="269.99" height="271.25" as="geometry" />
        </mxCell>
        <mxCell id="1CuzqH8pf1TleUMOYyzA-18" value="" style="triangle;whiteSpace=wrap;html=1;fontSize=34;rotation=0;fillColor=#666666;fillStyle=auto;gradientColor=none;" parent="1CuzqH8pf1TleUMOYyzA-17" vertex="1">
          <mxGeometry x="85" y="72" width="186.25" height="126.25" as="geometry" />
        </mxCell>
        <mxCell id="1CuzqH8pf1TleUMOYyzA-19" value="Bottleneck" style="text;html=1;strokeColor=none;fillColor=none;align=center;verticalAlign=middle;whiteSpace=wrap;rounded=0;fontSize=46;rotation=0;" parent="1CuzqH8pf1TleUMOYyzA-20" vertex="1">
          <mxGeometry y="94" width="269.99" height="80" as="geometry" />
        </mxCell>
        <mxCell id="1CuzqH8pf1TleUMOYyzA-21" value="&lt;font style=&quot;font-size: 46px;&quot;&gt;AD&lt;/font&gt;" style="whiteSpace=wrap;html=1;aspect=fixed;strokeWidth=5;fillColor=#f5f5f5;fontColor=#333333;strokeColor=#666666;" parent="1" vertex="1">
          <mxGeometry x="2440" y="590" width="80" height="80" as="geometry" />
        </mxCell>
        <mxCell id="1CuzqH8pf1TleUMOYyzA-22" value="&lt;font style=&quot;font-size: 46px;&quot;&gt;Q&lt;/font&gt;" style="whiteSpace=wrap;html=1;aspect=fixed;strokeWidth=5;fillColor=#f5f5f5;fontColor=#333333;strokeColor=#666666;" parent="1" vertex="1">
          <mxGeometry x="3850" y="352.5" width="80" height="80" as="geometry" />
        </mxCell>
        <mxCell id="1CuzqH8pf1TleUMOYyzA-23" value="&lt;font style=&quot;font-size: 46px;&quot;&gt;AE&lt;/font&gt;" style="whiteSpace=wrap;html=1;aspect=fixed;strokeWidth=5;fillColor=#f5f5f5;fontColor=#333333;strokeColor=#666666;" parent="1" vertex="1">
          <mxGeometry x="3850" y="452.5" width="80" height="80" as="geometry" />
        </mxCell>
        <mxCell id="1CuzqH8pf1TleUMOYyzA-24" value="" style="group;flipH=1;" parent="1" vertex="1" connectable="0">
          <mxGeometry x="3410" y="422.5000000000001" width="470.6199999999999" height="270.6199999999999" as="geometry" />
        </mxCell>
        <mxCell id="1CuzqH8pf1TleUMOYyzA-27" value="Bottleneck" style="text;html=1;strokeColor=none;fillColor=none;align=center;verticalAlign=middle;whiteSpace=wrap;rounded=0;fontSize=46;rotation=0;" parent="1CuzqH8pf1TleUMOYyzA-24" vertex="1">
          <mxGeometry x="-30.000000000000227" y="94.99999999999989" width="269.99" height="80" as="geometry" />
        </mxCell>
        <mxCell id="1CuzqH8pf1TleUMOYyzA-25" value="" style="group;rotation=-90;flipH=0;flipV=0;direction=east;" parent="1CuzqH8pf1TleUMOYyzA-24" vertex="1" connectable="0">
          <mxGeometry x="160.00999999999976" y="-0.6300000000001091" width="269.99" height="271.25" as="geometry" />
        </mxCell>
        <mxCell id="1CuzqH8pf1TleUMOYyzA-26" value="" style="triangle;whiteSpace=wrap;html=1;fontSize=34;rotation=0;fillColor=#666666;fillStyle=auto;gradientColor=none;" parent="1CuzqH8pf1TleUMOYyzA-25" vertex="1">
          <mxGeometry x="85" y="72" width="186.25" height="126.25" as="geometry" />
        </mxCell>
        <mxCell id="1CuzqH8pf1TleUMOYyzA-28" value="&lt;font style=&quot;font-size: 46px;&quot;&gt;AD&lt;/font&gt;" style="whiteSpace=wrap;html=1;aspect=fixed;strokeWidth=5;fillColor=#f5f5f5;fontColor=#333333;strokeColor=#666666;" parent="1" vertex="1">
          <mxGeometry x="3850" y="592.5" width="80" height="80" as="geometry" />
        </mxCell>
        <mxCell id="1CuzqH8pf1TleUMOYyzA-30" value="" style="shape=cube;whiteSpace=wrap;html=1;boundedLbl=1;backgroundOutline=1;darkOpacity=0.05;darkOpacity2=0.1;size=110;direction=east;flipH=1;fillColor=#ffe6cc;strokeColor=#d79b00;aspect=fixed;" parent="1" vertex="1">
          <mxGeometry x="880" y="650" width="520" height="415" as="geometry" />
        </mxCell>
        <mxCell id="1CuzqH8pf1TleUMOYyzA-31" value="" style="shape=cube;whiteSpace=wrap;html=1;boundedLbl=1;backgroundOutline=1;darkOpacity=0.05;darkOpacity2=0.1;flipV=0;flipH=1;fillColor=#d5e8d4;strokeColor=#82b366;size=120;" parent="1" vertex="1">
          <mxGeometry x="1380" y="650" width="220" height="420" as="geometry" />
        </mxCell>
        <mxCell id="1CuzqH8pf1TleUMOYyzA-32" value="H x W x C" style="text;html=1;strokeColor=none;fillColor=none;align=center;verticalAlign=middle;whiteSpace=wrap;rounded=0;fontSize=46;aspect=fixed;" parent="1" vertex="1">
          <mxGeometry x="950" y="1081.3899999999999" width="309.5" height="100" as="geometry" />
        </mxCell>
        <mxCell id="1CuzqH8pf1TleUMOYyzA-33" value="" style="shape=cube;whiteSpace=wrap;html=1;boundedLbl=1;backgroundOutline=1;darkOpacity=0.05;darkOpacity2=0.1;size=80;direction=east;flipH=1;fillColor=#ffe6cc;strokeColor=#d79b00;" parent="1" vertex="1">
          <mxGeometry x="1610" y="724.33" width="650" height="271.34" as="geometry" />
        </mxCell>
        <mxCell id="1CuzqH8pf1TleUMOYyzA-34" value="H/16 x W/16 x M" style="text;html=1;strokeColor=none;fillColor=none;align=center;verticalAlign=middle;whiteSpace=wrap;rounded=0;fontSize=46;aspect=fixed;" parent="1" vertex="1">
          <mxGeometry x="1760" y="1070" width="380" height="122.78" as="geometry" />
        </mxCell>
        <mxCell id="1CuzqH8pf1TleUMOYyzA-35" value="" style="endArrow=classic;html=1;rounded=0;strokeWidth=4;" parent="1" edge="1">
          <mxGeometry width="50" height="50" relative="1" as="geometry">
            <mxPoint x="2480" y="720" as="sourcePoint" />
            <mxPoint x="2320" y="870" as="targetPoint" />
            <Array as="points">
              <mxPoint x="2480" y="870" />
            </Array>
          </mxGeometry>
        </mxCell>
        <mxCell id="1CuzqH8pf1TleUMOYyzA-36" value="" style="shape=cube;whiteSpace=wrap;html=1;boundedLbl=1;backgroundOutline=1;darkOpacity=0.05;darkOpacity2=0.1;flipV=0;flipH=1;fillColor=#dae8fc;strokeColor=#6c8ebf;size=120;" parent="1" vertex="1">
          <mxGeometry x="2990" y="663.89" width="220" height="420" as="geometry" />
        </mxCell>
        <mxCell id="1CuzqH8pf1TleUMOYyzA-37" value="" style="shape=cube;whiteSpace=wrap;html=1;boundedLbl=1;backgroundOutline=1;darkOpacity=0.05;darkOpacity2=0.1;size=50;direction=east;flipH=1;fillColor=#ffe6cc;strokeColor=#d79b00;" parent="1" vertex="1">
          <mxGeometry x="3280" y="804.8" width="430" height="143.17" as="geometry" />
        </mxCell>
        <mxCell id="1CuzqH8pf1TleUMOYyzA-38" value="" style="endArrow=classic;html=1;rounded=0;strokeWidth=4;" parent="1" edge="1">
          <mxGeometry width="50" height="50" relative="1" as="geometry">
            <mxPoint x="3890" y="722.5" as="sourcePoint" />
            <mxPoint x="3730" y="872.5" as="targetPoint" />
            <Array as="points">
              <mxPoint x="3890" y="872.5" />
            </Array>
          </mxGeometry>
        </mxCell>
        <mxCell id="1CuzqH8pf1TleUMOYyzA-39" value="" style="endArrow=none;html=1;rounded=0;strokeWidth=4;endFill=0;" parent="1" edge="1">
          <mxGeometry width="50" height="50" relative="1" as="geometry">
            <mxPoint x="2650" y="869.96" as="sourcePoint" />
            <mxPoint x="2480" y="869.96" as="targetPoint" />
          </mxGeometry>
        </mxCell>
        <mxCell id="1CuzqH8pf1TleUMOYyzA-40" value="" style="endArrow=classic;dashed=1;html=1;rounded=0;strokeWidth=4;fontSize=46;entryX=1;entryY=0.5;entryDx=0;entryDy=0;endFill=1;exitX=0;exitY=0;exitDx=220;exitDy=120;exitPerimeter=0;" parent="1" source="fKvLLZ2Ubtq6xktoQ9kG-10" target="1CuzqH8pf1TleUMOYyzA-21" edge="1">
          <mxGeometry width="50" height="50" relative="1" as="geometry">
            <mxPoint x="2700" y="740" as="sourcePoint" />
            <mxPoint x="2310" y="350" as="targetPoint" />
          </mxGeometry>
        </mxCell>
        <mxCell id="1CuzqH8pf1TleUMOYyzA-41" value="" style="endArrow=classic;dashed=1;html=1;rounded=0;strokeWidth=4;fontSize=46;endFill=1;exitX=0;exitY=0;exitDx=220;exitDy=120;exitPerimeter=0;" parent="1" source="fKvLLZ2Ubtq6xktoQ9kG-10" edge="1">
          <mxGeometry width="50" height="50" relative="1" as="geometry">
            <mxPoint x="2690" y="740" as="sourcePoint" />
            <mxPoint x="2520" y="480" as="targetPoint" />
          </mxGeometry>
        </mxCell>
        <mxCell id="1CuzqH8pf1TleUMOYyzA-42" value="σ" style="text;html=1;strokeColor=none;fillColor=none;align=center;verticalAlign=middle;whiteSpace=wrap;rounded=0;fontSize=46;" parent="1" vertex="1">
          <mxGeometry x="2570" y="730" width="60" height="30" as="geometry" />
        </mxCell>
        <mxCell id="1CuzqH8pf1TleUMOYyzA-43" value="H/64 x W/64 x N" style="text;html=1;strokeColor=none;fillColor=none;align=center;verticalAlign=middle;whiteSpace=wrap;rounded=0;fontSize=46;aspect=fixed;" parent="1" vertex="1">
          <mxGeometry x="3305" y="1061.1100000000001" width="380" height="122.78" as="geometry" />
        </mxCell>
        <mxCell id="1CuzqH8pf1TleUMOYyzA-44" value="" style="group" parent="1" vertex="1" connectable="0">
          <mxGeometry x="3900" y="710" width="699" height="120.00000000000011" as="geometry" />
        </mxCell>
        <mxCell id="1CuzqH8pf1TleUMOYyzA-45" value="Hyperprior autoencoder" style="text;html=1;strokeColor=none;fillColor=none;align=left;verticalAlign=middle;whiteSpace=wrap;rounded=0;fontStyle=1;fontSize=34;" parent="1CuzqH8pf1TleUMOYyzA-44" vertex="1">
          <mxGeometry x="300" y="2.5000000000001137" width="469" height="120" as="geometry" />
        </mxCell>
        <mxCell id="1CuzqH8pf1TleUMOYyzA-46" value="" style="group" parent="1CuzqH8pf1TleUMOYyzA-44" vertex="1" connectable="0">
          <mxGeometry x="150" y="-127.5" width="619" height="120.00000000000011" as="geometry" />
        </mxCell>
        <mxCell id="1CuzqH8pf1TleUMOYyzA-47" value="" style="shape=cube;whiteSpace=wrap;html=1;boundedLbl=1;backgroundOutline=1;darkOpacity=0.05;darkOpacity2=0.1;size=40;direction=east;flipH=1;fillColor=#d5e8d4;strokeColor=#82b366;" parent="1CuzqH8pf1TleUMOYyzA-46" vertex="1">
          <mxGeometry width="122.5" height="120" as="geometry" />
        </mxCell>
        <mxCell id="1CuzqH8pf1TleUMOYyzA-48" value="Spatial image autoencoder" style="text;html=1;strokeColor=none;fillColor=none;align=left;verticalAlign=middle;whiteSpace=wrap;rounded=0;fontStyle=1;fontSize=34;" parent="1CuzqH8pf1TleUMOYyzA-46" vertex="1">
          <mxGeometry x="150" y="1.1368683772161603e-13" width="469" height="120" as="geometry" />
        </mxCell>
        <mxCell id="1CuzqH8pf1TleUMOYyzA-49" value="" style="shape=cube;whiteSpace=wrap;html=1;boundedLbl=1;backgroundOutline=1;darkOpacity=0.05;darkOpacity2=0.1;size=40;direction=east;flipH=1;fillColor=#dae8fc;strokeColor=#6c8ebf;" parent="1" vertex="1">
          <mxGeometry x="4050" y="722.5" width="122.5" height="120" as="geometry" />
        </mxCell>
        <mxCell id="1CuzqH8pf1TleUMOYyzA-51" value="&lt;font style=&quot;font-size: 46px;&quot;&gt;Q&lt;/font&gt;" style="whiteSpace=wrap;html=1;aspect=fixed;strokeWidth=5;fillColor=#f5f5f5;fontColor=#333333;strokeColor=#666666;" parent="1" vertex="1">
          <mxGeometry x="4071.25" y="162.50000000000009" width="80" height="80" as="geometry" />
        </mxCell>
        <mxCell id="1CuzqH8pf1TleUMOYyzA-52" value="Quantization" style="text;html=1;strokeColor=none;fillColor=none;align=left;verticalAlign=middle;whiteSpace=wrap;rounded=0;fontStyle=1;fontSize=34;" parent="1" vertex="1">
          <mxGeometry x="4200" y="142.50000000000009" width="469" height="120" as="geometry" />
        </mxCell>
        <mxCell id="1CuzqH8pf1TleUMOYyzA-53" value="&lt;font style=&quot;font-size: 46px;&quot;&gt;AE&lt;/font&gt;" style="whiteSpace=wrap;html=1;aspect=fixed;strokeWidth=5;fillColor=#f5f5f5;fontColor=#333333;strokeColor=#666666;" parent="1" vertex="1">
          <mxGeometry x="4071.25" y="252.5000000000001" width="80" height="80" as="geometry" />
        </mxCell>
        <mxCell id="1CuzqH8pf1TleUMOYyzA-54" value="&lt;font style=&quot;font-size: 46px;&quot;&gt;AD&lt;/font&gt;" style="whiteSpace=wrap;html=1;aspect=fixed;strokeWidth=5;fillColor=#f5f5f5;fontColor=#333333;strokeColor=#666666;" parent="1" vertex="1">
          <mxGeometry x="4070" y="342.5000000000001" width="80" height="80" as="geometry" />
        </mxCell>
        <mxCell id="1CuzqH8pf1TleUMOYyzA-55" value="Arithmetic Encoder" style="text;html=1;strokeColor=none;fillColor=none;align=left;verticalAlign=middle;whiteSpace=wrap;rounded=0;fontStyle=1;fontSize=34;" parent="1" vertex="1">
          <mxGeometry x="4200" y="232.50000000000009" width="469" height="120" as="geometry" />
        </mxCell>
        <mxCell id="1CuzqH8pf1TleUMOYyzA-56" value="Arithmetic Decoder" style="text;html=1;strokeColor=none;fillColor=none;align=left;verticalAlign=middle;whiteSpace=wrap;rounded=0;fontStyle=1;fontSize=34;" parent="1" vertex="1">
          <mxGeometry x="4200" y="322.5000000000001" width="469" height="120" as="geometry" />
        </mxCell>
        <mxCell id="fKvLLZ2Ubtq6xktoQ9kG-10" value="" style="shape=cube;whiteSpace=wrap;html=1;boundedLbl=1;backgroundOutline=1;darkOpacity=0.05;darkOpacity2=0.1;flipV=0;flipH=1;fillColor=#f8cecc;strokeColor=#b85450;size=120;" vertex="1" parent="1">
          <mxGeometry x="2680" y="663.89" width="220" height="420" as="geometry" />
        </mxCell>
        <mxCell id="fKvLLZ2Ubtq6xktoQ9kG-19" value="" style="group" vertex="1" connectable="0" parent="1">
          <mxGeometry x="2730" y="300" width="240" height="240" as="geometry" />
        </mxCell>
        <mxCell id="fKvLLZ2Ubtq6xktoQ9kG-12" value="" style="whiteSpace=wrap;html=1;aspect=fixed;fillColor=#f8cecc;strokeColor=#000000;strokeWidth=1;perimeterSpacing=0;container=0;" vertex="1" parent="fKvLLZ2Ubtq6xktoQ9kG-19">
          <mxGeometry width="240" height="240" as="geometry" />
        </mxCell>
        <mxCell id="fKvLLZ2Ubtq6xktoQ9kG-13" value="" style="rounded=0;whiteSpace=wrap;html=1;fillColor=#d5e8d4;strokeColor=none;container=0;" vertex="1" parent="fKvLLZ2Ubtq6xktoQ9kG-19">
          <mxGeometry width="240" height="120" as="geometry" />
        </mxCell>
        <mxCell id="fKvLLZ2Ubtq6xktoQ9kG-14" value="" style="rounded=0;whiteSpace=wrap;html=1;fillColor=#d5e8d4;strokeColor=none;container=0;" vertex="1" parent="fKvLLZ2Ubtq6xktoQ9kG-19">
          <mxGeometry y="120" width="120" height="60" as="geometry" />
        </mxCell>
        <mxCell id="fKvLLZ2Ubtq6xktoQ9kG-15" value="" style="endArrow=none;html=1;rounded=0;exitX=0;exitY=1;exitDx=0;exitDy=0;entryX=0;entryY=0;entryDx=0;entryDy=0;" edge="1" parent="fKvLLZ2Ubtq6xktoQ9kG-19" source="fKvLLZ2Ubtq6xktoQ9kG-14" target="fKvLLZ2Ubtq6xktoQ9kG-13">
          <mxGeometry width="50" height="50" relative="1" as="geometry">
            <mxPoint x="190" y="940" as="sourcePoint" />
            <mxPoint x="240" y="890" as="targetPoint" />
          </mxGeometry>
        </mxCell>
        <mxCell id="fKvLLZ2Ubtq6xktoQ9kG-16" value="" style="endArrow=none;html=1;rounded=0;exitX=1;exitY=0;exitDx=0;exitDy=0;entryX=0;entryY=0;entryDx=0;entryDy=0;" edge="1" parent="fKvLLZ2Ubtq6xktoQ9kG-19" source="fKvLLZ2Ubtq6xktoQ9kG-13" target="fKvLLZ2Ubtq6xktoQ9kG-13">
          <mxGeometry width="50" height="50" relative="1" as="geometry">
            <mxPoint x="10" y="190" as="sourcePoint" />
            <mxPoint x="10" y="10" as="targetPoint" />
          </mxGeometry>
        </mxCell>
        <mxCell id="fKvLLZ2Ubtq6xktoQ9kG-18" value="" style="endArrow=none;html=1;rounded=0;entryX=1;entryY=1;entryDx=0;entryDy=0;exitX=1;exitY=0;exitDx=0;exitDy=0;" edge="1" parent="fKvLLZ2Ubtq6xktoQ9kG-19" source="fKvLLZ2Ubtq6xktoQ9kG-13" target="fKvLLZ2Ubtq6xktoQ9kG-13">
          <mxGeometry width="50" height="50" relative="1" as="geometry">
            <mxPoint x="240" y="-220" as="sourcePoint" />
            <mxPoint x="10" y="10" as="targetPoint" />
          </mxGeometry>
        </mxCell>
        <mxCell id="fKvLLZ2Ubtq6xktoQ9kG-20" value="" style="endArrow=classic;html=1;rounded=0;exitX=1;exitY=0.5;exitDx=0;exitDy=0;entryX=0;entryY=0;entryDx=0;entryDy=0;strokeWidth=4;" edge="1" parent="1" source="1CuzqH8pf1TleUMOYyzA-13" target="fKvLLZ2Ubtq6xktoQ9kG-14">
          <mxGeometry width="50" height="50" relative="1" as="geometry">
            <mxPoint x="2540" y="460" as="sourcePoint" />
            <mxPoint x="2700" y="420" as="targetPoint" />
          </mxGeometry>
        </mxCell>
        <mxCell id="fKvLLZ2Ubtq6xktoQ9kG-21" value="" style="endArrow=classic;html=1;rounded=0;exitX=0.5;exitY=1;exitDx=0;exitDy=0;entryX=0;entryY=0;entryDx=50;entryDy=0;strokeWidth=4;entryPerimeter=0;" edge="1" parent="1" source="fKvLLZ2Ubtq6xktoQ9kG-12" target="fKvLLZ2Ubtq6xktoQ9kG-10">
          <mxGeometry width="50" height="50" relative="1" as="geometry">
            <mxPoint x="2530" y="400" as="sourcePoint" />
            <mxPoint x="2700" y="430" as="targetPoint" />
          </mxGeometry>
        </mxCell>
        <mxCell id="fKvLLZ2Ubtq6xktoQ9kG-22" value="" style="endArrow=classic;html=1;rounded=0;exitX=1;exitY=0.5;exitDx=0;exitDy=0;entryX=0;entryY=0;entryDx=0;entryDy=0;strokeWidth=4;" edge="1" parent="1" source="1CuzqH8pf1TleUMOYyzA-21" target="fKvLLZ2Ubtq6xktoQ9kG-14">
          <mxGeometry width="50" height="50" relative="1" as="geometry">
            <mxPoint x="2540" y="410" as="sourcePoint" />
            <mxPoint x="2710" y="440" as="targetPoint" />
          </mxGeometry>
        </mxCell>
        <mxCell id="fKvLLZ2Ubtq6xktoQ9kG-23" value="" style="shape=cube;whiteSpace=wrap;html=1;boundedLbl=1;backgroundOutline=1;darkOpacity=0.05;darkOpacity2=0.1;size=40;direction=east;flipH=1;fillColor=#f8cecc;strokeColor=#b85450;" vertex="1" parent="1">
          <mxGeometry x="4048.75" y="860" width="122.5" height="120" as="geometry" />
        </mxCell>
        <mxCell id="fKvLLZ2Ubtq6xktoQ9kG-24" value="Entropy parameter network" style="text;html=1;strokeColor=none;fillColor=none;align=left;verticalAlign=middle;whiteSpace=wrap;rounded=0;fontStyle=1;fontSize=34;" vertex="1" parent="1">
          <mxGeometry x="4200" y="860.0000000000001" width="469" height="120" as="geometry" />
        </mxCell>
        <mxCell id="fKvLLZ2Ubtq6xktoQ9kG-25" value="" style="group;aspect=fixed;" vertex="1" connectable="0" parent="1">
          <mxGeometry x="4061.25" y="450" width="101.39" height="101.39" as="geometry" />
        </mxCell>
        <mxCell id="fKvLLZ2Ubtq6xktoQ9kG-26" value="" style="whiteSpace=wrap;html=1;aspect=fixed;fillColor=#f8cecc;strokeColor=#000000;strokeWidth=1;perimeterSpacing=0;container=0;" vertex="1" parent="fKvLLZ2Ubtq6xktoQ9kG-25">
          <mxGeometry width="101.39" height="101.39" as="geometry" />
        </mxCell>
        <mxCell id="fKvLLZ2Ubtq6xktoQ9kG-27" value="" style="rounded=0;whiteSpace=wrap;html=1;fillColor=#d5e8d4;strokeColor=none;container=0;" vertex="1" parent="fKvLLZ2Ubtq6xktoQ9kG-25">
          <mxGeometry width="101.39" height="50.695" as="geometry" />
        </mxCell>
        <mxCell id="fKvLLZ2Ubtq6xktoQ9kG-28" value="" style="rounded=0;whiteSpace=wrap;html=1;fillColor=#d5e8d4;strokeColor=none;container=0;" vertex="1" parent="fKvLLZ2Ubtq6xktoQ9kG-25">
          <mxGeometry y="50.695" width="50.695" height="25.3475" as="geometry" />
        </mxCell>
        <mxCell id="fKvLLZ2Ubtq6xktoQ9kG-29" value="" style="endArrow=none;html=1;rounded=0;exitX=0;exitY=1;exitDx=0;exitDy=0;entryX=0;entryY=0;entryDx=0;entryDy=0;" edge="1" parent="fKvLLZ2Ubtq6xktoQ9kG-25" source="fKvLLZ2Ubtq6xktoQ9kG-28" target="fKvLLZ2Ubtq6xktoQ9kG-27">
          <mxGeometry width="50" height="50" relative="1" as="geometry">
            <mxPoint x="80.26708333333333" y="397.1108333333333" as="sourcePoint" />
            <mxPoint x="101.39" y="375.98791666666665" as="targetPoint" />
          </mxGeometry>
        </mxCell>
        <mxCell id="fKvLLZ2Ubtq6xktoQ9kG-30" value="" style="endArrow=none;html=1;rounded=0;exitX=1;exitY=0;exitDx=0;exitDy=0;entryX=0;entryY=0;entryDx=0;entryDy=0;" edge="1" parent="fKvLLZ2Ubtq6xktoQ9kG-25" source="fKvLLZ2Ubtq6xktoQ9kG-27" target="fKvLLZ2Ubtq6xktoQ9kG-27">
          <mxGeometry width="50" height="50" relative="1" as="geometry">
            <mxPoint x="4.224583333333333" y="80.26708333333333" as="sourcePoint" />
            <mxPoint x="4.224583333333333" y="4.224583333333333" as="targetPoint" />
          </mxGeometry>
        </mxCell>
        <mxCell id="fKvLLZ2Ubtq6xktoQ9kG-31" value="" style="endArrow=none;html=1;rounded=0;entryX=1;entryY=1;entryDx=0;entryDy=0;exitX=1;exitY=0;exitDx=0;exitDy=0;" edge="1" parent="fKvLLZ2Ubtq6xktoQ9kG-25" source="fKvLLZ2Ubtq6xktoQ9kG-27" target="fKvLLZ2Ubtq6xktoQ9kG-27">
          <mxGeometry width="50" height="50" relative="1" as="geometry">
            <mxPoint x="101.39" y="-92.94083333333333" as="sourcePoint" />
            <mxPoint x="4.224583333333333" y="4.224583333333333" as="targetPoint" />
          </mxGeometry>
        </mxCell>
        <mxCell id="fKvLLZ2Ubtq6xktoQ9kG-34" value="Context model" style="text;html=1;strokeColor=none;fillColor=none;align=left;verticalAlign=middle;whiteSpace=wrap;rounded=0;fontStyle=1;fontSize=34;" vertex="1" parent="1">
          <mxGeometry x="4200" y="440.6900000000001" width="469" height="120" as="geometry" />
        </mxCell>
      </root>
    </mxGraphModel>
  </diagram>
</mxfile>
